<svg xmlns="http://www.w3.org/2000/svg" viewBox="0 0 102.23 102.23">
  <defs>
    <style>
      .cls-1 {
        fill: none;
        stroke: #fff;
        stroke-miterlimit: 10;
        stroke-width: 2.23px;
      }

      .cls-2 {
        fill: #fff;
        fill-rule: evenodd;
      }
    </style>
  </defs>
  <title>GitHub</title>
  <g id="Layer_2" data-name="Layer 2">
    <g id="Main_Text" data-name="Main Text">
      <g>
        <circle class="cls-1" cx="51.12" cy="51.12" r="50"/>
        <path class="cls-2" d="M51.11,29.17A22.5,22.5,0,0,0,44,73c1.13.21,1.54-.49,1.54-1.09s0-1.95,0-3.83c-6.26,1.36-7.58-3-7.58-3a6,6,0,0,0-2.5-3.29c-2-1.4.15-1.37.15-1.37A4.73,4.73,0,0,1,39,62.75c2,3.44,5.27,2.44,6.55,1.87a4.8,4.8,0,0,1,1.43-3C42,61,36.76,59.12,36.76,50.5a8.7,8.7,0,0,1,2.32-6,8.09,8.09,0,0,1,.22-6s1.89-.6,6.19,2.31a21.34,21.34,0,0,1,11.27,0c4.3-2.91,6.18-2.31,6.18-2.31a8.07,8.07,0,0,1,.22,6,8.68,8.68,0,0,1,2.31,6c0,8.64-5.26,10.55-10.27,11.1a5.37,5.37,0,0,1,1.53,4.17c0,3,0,5.43,0,6.17s.4,1.3,1.55,1.08a22.5,22.5,0,0,0-7.13-43.85"/>
      </g>
    </g>
  </g>
</svg>
