<svg xmlns="http://www.w3.org/2000/svg" viewBox="0 0 102.23 102.23">
  <defs>
    <style>
      .cls-1 {
        fill: none;
        stroke: #fff;
        stroke-miterlimit: 10;
        stroke-width: 2.23px;
      }

      .cls-2 {
        fill: #fff;
      }
    </style>
  </defs>
  <title>Linkedin</title>
  <g id="Layer_2" data-name="Layer 2">
    <g id="Main_Text" data-name="Main Text">
      <g>
        <circle class="cls-1" cx="51.12" cy="51.12" r="50"/>
        <path class="cls-2" d="M62.78,31.12H39.45a8.33,8.33,0,0,0-8.33,8.33V62.78a8.33,8.33,0,0,0,8.33,8.33H62.78a8.33,8.33,0,0,0,8.33-8.33V39.45A8.33,8.33,0,0,0,62.78,31.12ZM44.45,62.78h-5V44.45h5Zm-2.5-20.45a2.94,2.94,0,1,1,2.92-2.94A2.93,2.93,0,0,1,41.95,42.34Zm22.5,20.45h-5V53.44c0-5.61-6.67-5.19-6.67,0v9.34h-5V44.45h5v2.94c2.33-4.31,11.67-4.63,11.67,4.13Z"/>
      </g>
    </g>
  </g>
</svg>
